PathFileType	4	(x/y/z)	S04_PSF_T10.trc
DataRate	CameraRate	NumFrames	NumMarkers	Units	OrigDataRate	OrigDataStartFrame	OrigNumFrames
240	240	4	51	mm	240	319	425
Frame#	Time	Sternum			R.Acromium			L.Acromium			Top.Head			R.ASIS			L.ASIS			R.PSIS			L.PSIS			R.Great.Tro			L.Great.Tro			R.Iliac.Crest			L.Iliac.Crest			V.Sacral			R.Thigh.Upper.Post			R.Thigh.Lower.Ant			R.Thigh.Lower.Post			R.Thigh.Upper.Ant			R.Knee.Lat			R.Knee.Med			R.Shank.Upper.Post			R.Shank.Lower.Ant			R.Shank.Lower.Post			R.Shank.Upper.Ant			R.Ankle.Lat			R.Ankle.Med			R.Heel.Upper			R.Heel.Med			R.Heel.Lat			R.Toe.Lat			R.Toe.Med			R.Toe.Tip			L.Thigh.Upper.Post			L.Thigh.Lower.Ant			L.Thigh.Lower.Post			L.Thigh.Upper.Ant			L.Knee.Lat			L.Knee.Med			L.Shank.Upper.Post			L.Shank.Lower.Ant			L.Shank.Lower.Post			L.Shank.Upper.Ant			L.Ankle.Lat			L.Ankle.Med			L.Heel.Upper			L.Heel.Med			L.Heel.Lat			L.Toe.Lat			L.Toe.Med			L.Toe.Tip			Cervical.Spine			Back			
		X1	Y1	Z1	X2	Y2	Z2	X3	Y3	Z3	X4	Y4	Z4	X5	Y5	Z5	X6	Y6	Z6	X7	Y7	Z7	X8	Y8	Z8	X9	Y9	Z9	X10	Y10	Z10	X11	Y11	Z11	X12	Y12	Z12	X13	Y13	Z13	X14	Y14	Z14	X15	Y15	Z15	X16	Y16	Z16	X17	Y17	Z17	X18	Y18	Z18	X19	Y19	Z19	X20	Y20	Z20	X21	Y21	Z21	X22	Y22	Z22	X23	Y23	Z23	X24	Y24	Z24	X25	Y25	Z25	X26	Y26	Z26	X27	Y27	Z27	X28	Y28	Z28	X29	Y29	Z29	X30	Y30	Z30	X31	Y31	Z31	X32	Y32	Z32	X33	Y33	Z33	X34	Y34	Z34	X35	Y35	Z35	X36	Y36	Z36	X37	Y37	Z37	X38	Y38	Z38	X39	Y39	Z39	X40	Y40	Z40	X41	Y41	Z41	X42	Y42	Z42	X43	Y43	Z43	X44	Y44	Z44	X45	Y45	Z45	X46	Y46	Z46	X47	Y47	Z47	X48	Y48	Z48	X49	Y49	Z49	X50	Y50	Z50	X51	Y51	Z51	

319	1.325	346.55	1274.9	256.3	230.86	1504.6	437.59	202.03	1483.7	87.534	250.28	1829.1	244.63	315.61	983.27	402.42	321.53	1014.4	153.78	106.58	1024.1	299.47	114.68	1033.5	218.51	224.41	899.71	458.29	213.97	928.64	82.346	230.01	1081.7	442.7	215.81	1089.9	108.03	89.245	987.44	255.28	252.41	640.68	448.46	339.14	566.42	423.45	262.79	551.16	433.8	334.23	676.05	441.79	279.97	486.07	427.17	272.95	485.32	295.9	70.139	392.81	421.53	53.989	289.19	386.97	16.442	348.01	409.65	106.21	336.77	408.05	-66.174	269.47	391.91	-36.178	251.39	306.16	-123.5	297.02	328.49	-139.06	270.58	297.31	-150.83	277.19	362	-66.452	138.45	427.44	-30.116	103.17	317.45	17.639	67.84	372.48	244.9	687.7	96.006	343.4	610.26	106.93	271.28	603.59	112	313.2	693.21	87.955	329.17	517.72	124.52	325.98	509.61	247.67	250.25	333.75	124.02	322.94	250.06	131.92	258.64	256.63	133.66	314.87	325.89	122.15	298.65	99.864	152.5	303.75	111.17	244.44	225.37	70.874	196.83	231.43	47.139	232	229.09	42.255	170.11	413.72	42.348	133.83	442.94	50.918	250.52	500.33	61.616	202.01	167.28	1549.1	269.9	86.51	1291.4	261.26
320	1.3292	351.76	1275.8	256.32	235.78	1505.5	437.32	207.78	1484.7	87.212	255.91	1830	244.49	320.92	984.4	402.03	326.52	1015.1	153.36	111.82	1025	299.45	119.84	1034.4	218.47	230.15	900.87	458.16	218.57	929.38	82.2	235.23	1082.7	442.44	221.02	1090.8	107.74	94.434	988.39	255.29	261.05	642.03	448.42	348.43	568.69	423.12	272.33	552.62	433.69	342.42	678.25	441.57	290.18	487.74	426.88	283.09	487.07	295.61	81.131	392.81	420.89	65.956	289.01	386.57	27.877	347.5	409.01	117.7	337.05	407.62	-54.038	268.11	391.23	-23.807	250.3	305.57	-111.81	294.72	327.77	-126.95	267.97	296.64	-138.83	274.6	361.31	-52.41	137.41	427.21	-15.722	102.27	317.29	32.602	67.887	372.42	247.89	688.3	95.991	345.83	610.13	106.81	273.68	604.05	111.9	316.23	693.34	87.878	330.79	517.66	124.42	327.65	509.56	247.58	251.02	334.02	124.18	323.45	250.07	131.91	259.18	256.86	133.82	315.64	325.92	122.15	298.75	99.987	152.71	303.86	111.21	244.59	225.4	70.99	196.94	231.46	47.185	232.07	229.13	42.412	170.17	413.75	42.344	133.82	443.03	50.707	250.53	500.41	61.344	201.99	172.65	1550.1	269.51	91.77	1292.4	260.63
321	1.3333	356.97	1276.6	256.34	240.69	1506.4	437.06	213.52	1485.7	86.903	261.54	1830.9	244.38	326.23	985.51	401.65	331.49	1015.8	152.94	117.06	1026	299.44	124.99	1035.4	218.45	235.9	902.04	458.05	223.14	930.09	82.066	240.44	1083.8	442.18	226.19	1091.7	107.47	99.62	989.33	255.32	269.63	643.41	448.41	357.65	570.99	422.8	281.81	554.12	433.61	350.56	680.47	441.35	300.32	489.44	426.59	293.14	488.87	295.35	92.122	392.64	420.29	78.021	288.68	386.19	39.359	346.79	408.4	129.23	337.21	407.2	-41.764	266.47	390.58	-11.298	249	305	-100.01	292.1	327.09	-114.69	265.05	296	-126.69	271.66	360.67	-38.119	136.09	426.96	-1.0613	101.18	317.09	47.857	67.774	372.29	250.85	688.91	95.996	348.2	609.99	106.7	276.02	604.52	111.81	319.21	693.46	87.809	332.36	517.61	124.32	329.3	509.52	247.5	251.77	334.3	124.33	323.93	250.08	131.9	259.69	257.1	133.98	316.37	325.95	122.16	298.86	100.11	152.9	303.97	111.24	244.75	225.42	71.108	197.06	231.49	47.234	232.13	229.18	42.57	170.24	413.78	42.339	133.82	443.12	50.502	250.54	500.5	61.079	201.98	178.01	1551	269.12	97.025	1293.3	260.02
322	1.3375	362.18	1277.5	256.36	245.59	1507.4	436.8	219.24	1486.6	86.605	267.16	1831.7	244.28	331.55	986.62	401.25	336.44	1016.5	152.51	122.3	1027	299.46	130.13	1036.3	218.46	241.65	903.21	457.95	227.67	930.8	81.945	245.65	1084.8	441.93	231.34	1092.6	107.21	104.8	990.26	255.38	278.17	644.82	448.43	366.78	573.31	422.48	291.22	555.65	433.56	358.66	682.69	441.15	310.37	491.17	426.32	303.09	490.68	295.1	103.11	392.32	419.72	90.181	288.2	385.82	50.886	345.89	407.81	140.81	337.26	406.81	-29.354	264.57	389.96	1.3463	247.48	304.44	-88.081	289.18	326.46	-102.29	261.83	295.4	-114.41	268.37	360.07	-23.591	134.5	426.67	13.857	99.921	316.84	63.389	67.511	372.1	253.76	689.51	96.024	350.51	609.85	106.59	278.31	604.99	111.73	322.15	693.57	87.746	333.87	517.56	124.23	330.92	509.48	247.42	252.47	334.57	124.48	324.39	250.11	131.89	260.19	257.34	134.15	317.06	326	122.17	298.97	100.23	153.1	304.08	111.29	244.9	225.45	71.227	197.17	231.51	47.284	232.2	229.22	42.728	170.31	413.81	42.336	133.82	443.2	50.3	250.56	500.58	60.821	201.96	183.36	1551.9	268.74	102.27	1294.3	259.41
